<svg width="16" height="16" viewBox="0 0 16 16" fill="none" xmlns="http://www.w3.org/2000/svg">
<mask id="mask0" mask-type="alpha" maskUnits="userSpaceOnUse" x="0" y="0" width="16" height="16">
<path d="M7.91219 0C5.1987 0 3 2.18691 3 4.8837C3 6.46248 4.02075 8.58848 4.87155 10.292C6.44541 13.4437 7.91219 16 7.91219 16C7.91219 16 9.37996 13.4437 10.9528 10.292C11.8036 8.58848 12.8244 6.46248 12.8244 4.8837C12.8244 2.18691 10.6257 0 7.91219 0ZM7.91219 7.4852C6.49159 7.4852 5.33919 6.3328 5.33919 4.91219C5.33919 3.49159 6.49159 2.33919 7.91219 2.33919C9.3328 2.33919 10.4852 3.49159 10.4852 4.91219C10.4852 6.3328 9.3328 7.4852 7.91219 7.4852Z" fill="#8E8E8E"/>
</mask>
<g mask="url(#mask0)">
<rect width="16" height="16" fill="#8E8E8E"/>
</g>
</svg>
