<svg xmlns="http://www.w3.org/2000/svg" viewBox="0 0 24 24" width="24" height="24"><title xmlns="">101000439_driver-door-view_24</title><g><path d="M15.87,3.882C15.938,3.336,16.444,3,16.994,3h0.25C17.794,3,18,3.23,18,3.78v2C18,6.33,17.794,7,17.244,7h-0.75    c-0.55,0-0.944-0.501-0.876-1.047L15.87,3.882z M14.78,8.954c-0.882,2.786-2.786,3.711-2.786,5.857    c0,0.776,0.299,1.401,0.716,1.895l-5.582-0.42C7.084,16.282,7.04,16.28,6.994,16.28c-0.966,0-1.75,0.894-1.75,1.86    c0,0.967,0.784,1.86,1.75,1.86h6.7c0.685,0,1.264-0.569,1.443-1.198l2.581-9.187c0.018-0.091,0.026-0.212,0.026-0.308    c0-0.828-0.671-1.514-1.5-1.514C15.527,7.794,14.929,8.282,14.78,8.954z" fill="#4d4d4d"/></g></svg>