<svg viewBox="0 0 32 32" fill="none" xmlns="http://www.w3.org/2000/svg">
<path fill-rule="evenodd" clip-rule="evenodd" d="M16 2.883C20.272 2.883 20.778 2.899 22.465 2.976C24.025 3.047 24.872 3.308 25.436 3.527C26.131 3.783 26.76 4.192 27.276 4.724C27.807 5.24 28.216 5.869 28.473 6.564C28.692 7.128 28.953 7.975 29.024 9.535C29.101 11.222 29.117 11.728 29.117 16C29.117 20.272 29.101 20.778 29.024 22.465C28.953 24.025 28.692 24.872 28.473 25.436C27.935 26.831 26.832 27.934 25.436 28.473C24.872 28.692 24.025 28.953 22.465 29.024C20.778 29.101 20.272 29.117 16 29.117C11.728 29.117 11.222 29.101 9.535 29.024C7.975 28.953 7.128 28.692 6.564 28.473C5.869 28.217 5.24 27.808 4.724 27.276C4.193 26.76 3.784 26.131 3.527 25.436C3.308 24.872 3.047 24.025 2.976 22.465C2.899 20.778 2.883 20.272 2.883 16C2.883 11.728 2.899 11.222 2.976 9.535C3.047 7.975 3.308 7.128 3.527 6.564C3.784 5.869 4.193 5.24 4.724 4.724C5.24 4.193 5.869 3.784 6.564 3.527C7.128 3.308 7.975 3.047 9.535 2.976C11.222 2.9 11.728 2.883 16 2.883ZM16 0C11.655 0 11.11 0.0179997 9.403 0.0959997C7.7 0.174 6.537 0.445 5.52 0.84C4.452 1.242 3.485 1.872 2.686 2.685C1.872 3.484 1.242 4.451 0.84 5.519C0.445 6.537 0.174 7.7 0.0970001 9.403C0.0180001 11.11 0 11.655 0 16C0 20.345 0.0180001 20.89 0.0970001 22.597C0.175 24.3 0.445 25.463 0.841 26.481C1.243 27.549 1.873 28.516 2.686 29.315C3.485 30.129 4.452 30.759 5.52 31.16C6.538 31.556 7.701 31.826 9.404 31.904C11.11 31.982 11.655 32 16 32C20.345 32 20.89 31.982 22.597 31.904C24.3 31.826 25.463 31.556 26.481 31.16C28.63 30.329 30.329 28.63 31.16 26.481C31.556 25.463 31.826 24.3 31.904 22.597C31.982 20.891 32 20.346 32 16C32 11.654 31.982 11.11 31.904 9.403C31.826 7.7 31.556 6.537 31.16 5.519C30.758 4.451 30.128 3.484 29.315 2.685C28.516 1.871 27.549 1.241 26.481 0.839C25.463 0.444 24.3 0.173 22.597 0.0959997C20.89 0.0189997 20.345 0 16 0ZM16 7.78409C11.462 7.78409 7.784 11.4631 7.784 16.0001C7.784 20.5371 11.463 24.2161 16 24.2161C20.537 24.2161 24.216 20.5371 24.216 16.0001C24.216 11.4631 20.538 7.78409 16 7.78409ZM16 21.3341C13.055 21.3341 10.667 18.9461 10.667 16.0011C10.667 13.0561 13.055 10.6681 16 10.6681C18.945 10.6681 21.333 13.0561 21.333 16.0011C21.333 18.9461 18.945 21.3341 16 21.3341ZM26.461 7.46004C26.461 8.52043 25.6014 9.38004 24.541 9.38004C23.4806 9.38004 22.621 8.52043 22.621 7.46004C22.621 6.39965 23.4806 5.54004 24.541 5.54004C25.6014 5.54004 26.461 6.39965 26.461 7.46004Z" fill="#262626"/>
</svg>
