<svg viewBox="0 0 32 23" fill="none" xmlns="http://www.w3.org/2000/svg">
<path d="M31.6806 4.8557C31.6806 4.8557 31.3683 2.65108 30.4083 1.67941C29.1914 0.405312 27.8279 0.398154 27.2025 0.323892C22.7243 -4.2664e-07 16.0076 0 16.0076 0H15.9933C15.9933 0 9.27656 -4.2664e-07 4.79843 0.323892C4.17302 0.398154 2.80945 0.404418 1.59262 1.67941C0.633469 2.65019 0.321208 4.8557 0.321208 4.8557C0.321208 4.8557 0 7.44504 0 10.0344V12.4618C0 15.0511 0.320313 17.8006 0.320313 17.8006C0.320313 17.8006 0.632574 20.0053 1.59172 20.9769C2.80856 22.251 4.40833 22.2108 5.12054 22.345C7.68036 22.5901 16.0004 22.6662 16.0004 22.6662C16.0004 22.6662 22.7243 22.6563 27.2025 22.3324C27.8279 22.2582 29.1923 22.2519 30.4083 20.9769C31.3674 20.0062 31.6806 17.8006 31.6806 17.8006C31.6806 17.8006 32 15.0511 32 12.4618V10.0344C32 7.44504 31.6806 4.8557 31.6806 4.8557ZM12.333 15.6587V6.66663L21.3411 11.1779L12.333 15.6587Z" fill="#262626"/>
</svg>
