<svg viewBox="0 0 20 20" fill="none" xmlns="http://www.w3.org/2000/svg">
<path fill-rule="evenodd" clip-rule="evenodd" d="M17.4343 10.0001C17.4343 5.67058 13.9126 2.14882 9.58307 2.14882C5.25358 2.14882 1.73182 5.67058 1.73182 10.0001C1.73182 14.3296 5.25358 17.8513 9.58307 17.8513C13.9126 17.8513 17.4343 14.3296 17.4343 10.0001ZM0.0664062 10.0001C0.0664062 4.74449 4.32749 0.483398 9.58307 0.483398C14.8387 0.483398 19.0997 4.74449 19.0997 10.0001C19.0997 15.2562 14.8387 19.5167 9.58307 19.5167C4.32749 19.5167 0.0664062 15.2562 0.0664062 10.0001ZM8.39375 4.64675H10.7729V7.02591H8.39375V4.64675ZM8.39375 9.40508H10.7729V15.353H8.39375V9.40508Z" fill="#1B7B3A"/>
</svg>
