<svg width="16" height="16" viewBox="0 0 16 16" fill="none" xmlns="http://www.w3.org/2000/svg">
<mask id="mask0" mask-type="alpha" maskUnits="userSpaceOnUse" x="0" y="0" width="16" height="16">
<path d="M14.1435 9.35025C15.1687 9.35025 15.7727 8.31574 15.7727 7.29052V2.85561H4.2243L3.90513 1.68472C3.79565 1.28112 3.42917 1 3.0098 1H0V2.85561H2.30003L3.91534 8.71099L3.03485 12.8536C3.01815 12.9594 3.0098 13.0429 3.0098 13.1533C3.0098 14.3057 3.9441 15.2279 5.09736 15.2279C6.25062 15.2279 7.18492 14.3882 7.18492 13.2359C7.18492 13.1561 7.17008 13.0995 7.16173 13.0995H11.8481C11.8388 13.0995 11.8249 13.1496 11.8249 13.2294C11.8249 14.3817 12.7592 15.2659 13.9124 15.2659C15.0657 15.2659 16 14.4077 16 13.2554C16 12.103 15.0657 11.2448 13.9124 11.2448H5.26065L5.70415 9.35025H14.1435Z" fill="#262626"/>
</mask>
<g mask="url(#mask0)">
<rect width="16" height="16" fill="white"/>
</g>
</svg>
