<svg xmlns="http://www.w3.org/2000/svg" viewBox="0 0 24 24" width="24" height="24"><title xmlns="">101000340_car-front_24</title><g><path d="M20.5,9.263c0.43-0.13,0.5-0.388,0.5-0.688S20.797,8,20.4,8h-1.9c-1.3-2-2-3-4.1-3H9.6C7.5,5,6.8,6,5.5,8H3.6    C3.203,8,3,8.275,3,8.575s0.07,0.558,0.5,0.688l1.4,0.294L3,11v6.5c0,0.553,0.448,1,1,1h1.5c0.552,0,1-0.447,1-1V17H12h5.5v0.5    c0,0.553,0.448,1,1,1H20c0.552,0,1-0.447,1-1V11l-1.9-1.443L20.5,9.263z M7.5,14h-2C4.672,14,4,13.328,4,12.5V12h2    c0.828,0,1.5,0.672,1.5,1.5V14z M11.75,13.5c0,0.276-0.474,0.5-0.75,0.5H9.5C8.87,14,8,13.5,8,12.5C8,12.2,8.4,12,8.7,12H11    c0.276,0,0.75,0.224,0.75,0.5V13.5z M6.5,9c0.57-1.563,1.234-3,2.8-3h5.4c1.565,0,2.229,1.438,2.8,3H6.5z M14.5,14H13    c-0.276,0-0.75-0.224-0.75-0.5v-1c0-0.276,0.474-0.5,0.75-0.5h2.3c0.3,0,0.7,0.2,0.7,0.5C16,13.5,15.13,14,14.5,14z M20,12v0.5    c0,0.828-0.672,1.5-1.5,1.5h-2v-0.5c0-0.828,0.672-1.5,1.5-1.5H20z" fill="#262626"/></g></svg>