<svg width="12" height="11" viewBox="0 0 12 11" fill="none" xmlns="http://www.w3.org/2000/svg">
<path d="M10.6076 6.26268C11.3765 6.26268 11.8295 5.48681 11.8295 4.71789V1.39171H3.16822L2.92885 0.51354C2.84674 0.210844 2.57188 0 2.25735 0H0V1.39171H1.72502L2.9365 5.78324L2.27614 8.89023C2.26361 8.96955 2.25735 9.03218 2.25735 9.11499C2.25735 9.97924 2.95807 10.6709 3.82302 10.6709C4.68797 10.6709 5.38869 10.0412 5.38869 9.17692C5.38869 9.11708 5.37756 9.07463 5.3713 9.07463H8.88605C8.8791 9.07463 8.86866 9.11221 8.86866 9.17205C8.86866 10.0363 9.56938 10.6994 10.4343 10.6994C11.2993 10.6994 12 10.0558 12 9.19153C12 8.32728 11.2993 7.68362 10.4343 7.68362H3.94549L4.27811 6.26268H10.6076Z" fill="#0085AC"/>
</svg>
