<svg xmlns="http://www.w3.org/2000/svg" width="25" height="28" viewBox="0 0 25 28">
    <g fill="none" fill-rule="evenodd" stroke="#0C121C" stroke-linecap="round" stroke-linejoin="round" stroke-width=".789">
        <path d="M21.79 27.436H3.68a2.287 2.287 0 0 1-2.287-2.287V3.681a2.286 2.286 0 0 1 2.287-2.287H21.79a2.286 2.286 0 0 1 2.287 2.287V25.15a2.287 2.287 0 0 1-2.287 2.287z"/>
        <path d="M19.734 9.073H5.525a.695.695 0 0 1-.695-.695V5.344c0-.383.311-.695.695-.695h14.21c.383 0 .694.312.694.695v3.034a.695.695 0 0 1-.695.695zM7.274 13.47a1.05 1.05 0 1 0-2.101 0 1.05 1.05 0 0 0 2.101 0zM11.685 13.47a1.05 1.05 0 1 0-2.102 0 1.05 1.05 0 0 0 2.102 0zM16.096 13.47a1.052 1.052 0 0 0-2.101 0 1.05 1.05 0 0 0 2.1 0zM7.274 17.67a1.05 1.05 0 1 0-2.101 0 1.05 1.05 0 0 0 2.101 0zM11.685 17.67a1.05 1.05 0 1 0-2.102 0 1.05 1.05 0 0 0 2.102 0zM16.096 17.67a1.052 1.052 0 1 0-2.103.002 1.052 1.052 0 0 0 2.103-.001zM7.274 21.975a1.05 1.05 0 1 0-2.1 0 1.05 1.05 0 0 0 2.1 0zM11.685 21.975a1.05 1.05 0 1 0-2.1 0 1.05 1.05 0 0 0 2.1 0zM16.096 21.975a1.05 1.05 0 1 0-2.102.002 1.05 1.05 0 0 0 2.102-.002zM20.506 13.47a1.052 1.052 0 0 0-2.101 0 1.051 1.051 0 0 0 2.1 0zM19.997 22.92h-.978a.718.718 0 0 1-.718-.718v-4.653c0-.397.321-.72.718-.72h.978a.72.72 0 0 1 .72.72v4.653a.72.72 0 0 1-.72.719z"/>
    </g>
</svg>
