<svg width="21" height="21" viewBox="0 0 21 21" fill="none" xmlns="http://www.w3.org/2000/svg">
<path d="M11.0842 8.65234H9.50087V13.9301H8.44531V15.5135H9.50087H11.0842H12.1398V13.9301H11.0842V8.65234Z" fill="#1B7B3A"/>
<path d="M11.0833 5.48438H9.5V7.06771H11.0833V5.48438Z" fill="#1B7B3A"/>
<path d="M10.2917 1.79036C12.6139 1.79036 14.8306 2.68759 16.4667 4.3237C19.8444 7.70147 19.8444 13.2431 16.4667 16.6209C14.8306 18.257 12.6139 19.1543 10.2917 19.1543C7.96944 19.1543 5.75278 18.257 4.11667 16.6209C0.738888 13.2431 0.738888 7.70147 4.11667 4.3237C5.75278 2.68759 7.96944 1.79036 10.2917 1.79036ZM10.2917 0.207031C7.65278 0.207031 5.01389 1.20981 3.00833 3.21536C-1.00278 7.22647 -1.00278 13.7709 3.00833 17.782C5.01389 19.7876 7.65278 20.7904 10.2917 20.7904C12.9306 20.7904 15.5694 19.7876 17.575 17.782C21.5861 13.7709 21.5861 7.22647 17.575 3.21536C15.5694 1.20981 12.9306 0.207031 10.2917 0.207031Z" fill="#1B7B3A"/>
</svg>
