<svg width="30" height="30" viewBox="0 0 30 30" fill="none" xmlns="http://www.w3.org/2000/svg">
<path d="M10.7341 12.5956C10.843 12.5956 10.8974 12.6631 10.9518 12.7982L13.7273 18.5366L13.0743 19.0766L12.2035 19.8193L10.3532 12.6631L10.5164 12.5956H10.5709H10.6253C10.6797 12.5956 10.7341 12.5956 10.7341 12.5956ZM20.2579 22.7897C20.3124 22.7897 20.3124 22.8572 20.3124 22.8572V24.545H13.5096C13.5096 24.545 13.4552 24.545 13.4552 24.4775L13.0199 22.7897H13.9994H20.2579ZM10.7341 10.5703C10.5709 10.5703 10.4076 10.5703 10.2988 10.6378L8.28516 11.1104L11.9314 25.0851C11.9314 25.1526 11.9858 25.2876 12.0403 25.3551C12.3124 26.0302 12.911 26.5703 13.5641 26.5703H21.9994V22.8572C21.9994 21.7096 21.2375 20.7644 20.3124 20.7644H14.0539L15.2511 19.7517C15.5233 19.0766 15.5233 18.2665 15.1967 17.5914L12.4212 11.7855C12.0403 11.0429 11.3872 10.5703 10.7341 10.5703Z" fill="black"/>
<path d="M8.28571 7.1782C8.66667 7.1782 8.98413 7.41384 8.98413 7.64948V8.92194C8.98413 9.20471 8.66667 9.39323 8.28571 9.39323C7.90476 9.39323 7.5873 9.15759 7.5873 8.92194V7.64948C7.65079 7.41384 7.90476 7.1782 8.28571 7.1782ZM8.28571 6C7.01587 6 6 6.75405 6 7.64948V8.92194C6 9.86451 7.01587 10.5714 8.28571 10.5714C9.55556 10.5714 10.5714 9.81738 10.5714 8.92194V7.64948C10.5714 6.75405 9.55556 6 8.28571 6Z" fill="black"/>
</svg>
