<svg width="44" height="44" viewBox="0 0 44 44" fill="none" xmlns="http://www.w3.org/2000/svg">
<path d="M22.2126 43.9695C34.0078 43.9695 43.5698 34.2398 43.5698 22.2377C43.5698 10.2355 34.0078 0.505859 22.2126 0.505859C10.4174 0.505859 0.855469 10.2355 0.855469 22.2377C0.855469 34.2398 10.4174 43.9695 22.2126 43.9695Z" fill="black"/>
<path d="M19.3153 29.2905C25.1865 29.2905 28.4566 24.2993 28.4566 19.9888C28.4566 19.8375 28.4566 19.6863 28.4566 19.535C29.0511 19.0813 29.6457 18.4763 30.0173 17.8713C29.4227 18.0982 28.8282 18.325 28.1593 18.4007C28.8282 18.0225 29.3484 17.3419 29.5714 16.5857C28.9768 16.9638 28.2336 17.2663 27.5647 17.3419C26.9702 16.7369 26.1527 16.2832 25.2608 16.2832C23.4772 16.2832 22.0651 17.7201 22.0651 19.535C22.0651 19.7619 22.0651 20.0644 22.1394 20.2913C19.4639 20.14 17.0857 18.8544 15.525 16.8882C15.2277 17.3419 15.079 17.9469 15.079 18.5519C15.079 19.6863 15.6736 20.6694 16.4911 21.2744C15.9709 21.2744 15.4506 21.1231 15.0047 20.8962C15.0047 20.8962 15.0047 20.8962 15.0047 20.9719C15.0047 22.56 16.1195 23.8456 17.6059 24.1481C17.3086 24.2237 17.0857 24.2993 16.7884 24.2993C16.5654 24.2993 16.4168 24.2993 16.1938 24.2237C16.5654 25.5093 17.7545 26.4924 19.1666 26.4924C18.0518 27.3999 16.7141 27.8536 15.1534 27.8536C14.9304 27.8536 14.6331 27.8536 14.4102 27.778C15.8222 28.7611 17.5316 29.2905 19.3153 29.2905Z" fill="white"/>
</svg>
