<svg width="14" height="14" viewBox="0 0 14 14" fill="none" xmlns="http://www.w3.org/2000/svg">
<path d="M12.7932 5.75065L9.66823 8.87565L7.7099 7.29232L11.9182 3.08398L11.0432 2.20898L6.8349 6.41732L5.25156 4.45898L8.37656 1.33398L7.50156 0.458984L3.5849 4.37565L0.626562 12.209C0.501562 12.584 0.584896 13.0007 0.876563 13.2923C1.0849 13.5007 1.3349 13.584 1.62656 13.584C1.75156 13.584 1.87656 13.584 2.00156 13.5423L9.75156 10.5423L13.6682 6.62565L12.7932 5.75065ZM4.4599 5.50065L6.25156 7.75065L8.5849 9.62565L4.41823 11.209L2.91823 9.70898L4.4599 5.50065ZM2.41823 10.959L3.16823 11.709L1.9599 12.1673L2.41823 10.959Z" fill="black"/>
</svg>
