<svg width="12" height="15" viewBox="0 0 12 15" fill="none" xmlns="http://www.w3.org/2000/svg">
<path d="M5.5 5H4.25V12.0833H5.5V5Z" fill="black"/>
<path d="M8 5H6.75V12.0833H8V5Z" fill="black"/>
<path d="M10.5 3.74935V2.49935H8V2.29102C8 1.24935 7.16667 0.416016 6.125 0.416016C5.08333 0.416016 4.25 1.24935 4.25 2.29102V2.49935H1.75V3.74935H0.5V4.99935H1.75V12.916C1.75 13.8327 2.5 14.5827 3.41667 14.5827H8.83333C9.75 14.5827 10.5 13.8327 10.5 12.916V4.99935H11.75V3.74935H10.5ZM5.5 2.29102C5.5 1.95768 5.79167 1.66602 6.125 1.66602C6.45833 1.66602 6.75 1.95768 6.75 2.29102V2.49935H5.5V2.29102ZM8.83333 13.3327H3.41667C3.16667 13.3327 3 13.166 3 12.916V3.74935H9.25V12.916C9.25 13.166 9.08333 13.3327 8.83333 13.3327Z" fill="black"/>
</svg>
