<svg width="20" height="21" viewBox="0 0 20 21" fill="none" xmlns="http://www.w3.org/2000/svg">
<path d="M10.5 8.75H9V13.75H8V15.25H9H10.5H11.5V13.75H10.5V8.75Z" fill="#CC0000"/>
<path d="M10.5 5.75H9V7.25H10.5V5.75Z" fill="#CC0000"/>
<path d="M9.75 2.25C11.95 2.25 14.05 3.1 15.6 4.65C18.8 7.85 18.8 13.1 15.6 16.3C14.05 17.85 11.95 18.7 9.75 18.7C7.55 18.7 5.45 17.85 3.9 16.3C0.7 13.1 0.7 7.85 3.9 4.65C5.45 3.1 7.55 2.25 9.75 2.25ZM9.75 0.75C7.25 0.75 4.75 1.7 2.85 3.6C-0.95 7.4 -0.95 13.6 2.85 17.4C4.75 19.3 7.25 20.25 9.75 20.25C12.25 20.25 14.75 19.3 16.65 17.4C20.45 13.6 20.45 7.4 16.65 3.6C14.75 1.7 12.25 0.75 9.75 0.75Z" fill="#CC0000"/>
</svg>
