<svg width="44" height="44" viewBox="0 0 44 44" fill="none" xmlns="http://www.w3.org/2000/svg">
<path d="M21.7631 43.9695C33.7652 43.9695 43.4949 34.2398 43.4949 22.2377C43.4949 10.2355 33.7652 0.505859 21.7631 0.505859C9.76092 0.505859 0.03125 10.2355 0.03125 22.2377C0.03125 34.2398 9.76092 43.9695 21.7631 43.9695Z" fill="black"/>
<path d="M17.793 22.9409V20.1266H20.2723V18.0493C20.2723 16.8432 20.6073 15.9051 21.2774 15.302C21.9475 14.6319 22.8186 14.2969 23.8907 14.2969C24.8958 14.2969 25.6329 14.3639 26.102 14.4309V16.9772H24.6278C24.0917 16.9772 23.6897 17.1112 23.4887 17.3122C23.2876 17.5133 23.2206 17.9153 23.2206 18.3844V20.1936H26.035L25.6329 22.9409H23.1536V30.1778H20.2723V22.9409H17.793Z" fill="white"/>
</svg>
