<svg width="44" height="44" viewBox="0 0 44 44" fill="none" xmlns="http://www.w3.org/2000/svg">
<path d="M21.7631 43.9539C33.7652 43.9539 43.4949 34.2242 43.4949 22.2221C43.4949 10.2199 33.7652 0.490234 21.7631 0.490234C9.76092 0.490234 0.03125 10.2199 0.03125 22.2221C0.03125 34.2242 9.76092 43.9539 21.7631 43.9539Z" fill="black"/>
<path d="M29.6165 18.6918C29.6165 18.6918 29.478 17.5836 28.9931 17.0988C28.3698 16.4754 27.6771 16.4754 27.4 16.4061C25.1836 16.2676 21.8589 16.2676 21.8589 16.2676C21.8589 16.2676 18.5342 16.2676 16.3177 16.4061C16.0407 16.4754 15.348 16.4754 14.7247 17.0988C14.2398 17.5836 14.1013 18.6918 14.1013 18.6918C14.1013 18.6918 13.8242 20.0079 13.8242 21.2546V22.4321C13.8242 23.7481 13.9627 24.9949 13.9627 24.9949C13.9627 24.9949 14.1013 26.1031 14.5861 26.588C15.2095 27.2114 15.9714 27.2114 16.3177 27.2806C17.5645 27.4192 21.7204 27.4192 21.7204 27.4192C21.7204 27.4192 25.0451 27.4192 27.3308 27.2806C27.6078 27.2114 28.3005 27.2114 28.9239 26.588C29.4087 26.1031 29.5472 24.9949 29.5472 24.9949C29.5472 24.9949 29.6858 23.6789 29.6858 22.4321V21.2546C29.755 20.0079 29.6165 18.6918 29.6165 18.6918ZM20.1273 23.9559V19.4537L24.4217 21.6702L20.1273 23.9559Z" fill="white"/>
</svg>
