<svg width="30" height="30" viewBox="0 0 30 30" fill="none" xmlns="http://www.w3.org/2000/svg">
<path d="M6.33221 17.9338C5.79888 17.2671 5.93221 16.2671 6.66555 15.6005C7.39888 14.9338 8.46555 14.9338 8.99888 15.5338C9.53221 16.2005 9.39888 17.2005 8.66555 17.8671C7.93221 18.5338 6.86555 18.5338 6.33221 17.9338Z" fill="black"/>
<path d="M23.6669 17.9338C24.2002 17.2671 24.0669 16.2671 23.3335 15.6005C22.6002 14.9338 21.5335 14.9338 21.0002 15.5338C20.4668 16.2005 20.6002 17.2005 21.3335 17.8671C22.0668 18.5338 23.1335 18.5338 23.6669 17.9338Z" fill="black"/>
<path d="M28 13.3326V10.9992H24.7333V11.7992L24.1333 12.3992L22.1333 7.79922C21.7333 6.86589 20.8 6.19922 19.7333 6.19922H10.2667C9.2 6.19922 8.26667 6.86589 7.86667 7.79922L5.86667 12.3992L5.26667 11.7992V10.9992H2V13.3326H3.86667L4.53333 13.8659C3.73333 14.7326 3.26667 15.7992 3.26667 16.9326V24.1992C3.26667 25.1326 4 25.8659 4.93333 25.8659H7.46667C8.4 25.8659 9.13333 25.1326 9.13333 24.1992V23.9326H21V24.1992C21 25.1326 21.7333 25.8659 22.6667 25.8659H25.2C26.1333 25.8659 26.8667 25.1326 26.8667 24.1992V16.9326C26.8667 15.7992 26.4 14.6659 25.6 13.8659L26.2667 13.3326H28ZM9.73333 8.53255C9.8 8.33255 10 8.13255 10.2667 8.13255H19.7333C20 8.13255 20.2 8.26588 20.2667 8.53255L22 12.5992L20.8667 12.3326H9.13333L8 12.5992L9.73333 8.53255ZM24.7333 23.7992H22.9333V21.9326H7.06667V23.7992H5.26667V16.9326C5.26667 15.9326 5.86667 15.0659 6.73333 14.6659L7.06667 14.5326L7.6 14.3326H22.3333L22.8667 14.5326L23.2 14.6659C24.1333 15.0659 24.6667 15.9326 24.6667 16.9326V23.7992H24.7333Z" fill="black"/>
<path d="M19.1346 17.666H15.0013H10.868C9.86797 17.666 8.73464 18.7327 8.66797 19.666C8.66797 19.666 8.93464 20.9993 10.268 20.9993H15.0013H19.7346C21.1346 20.9993 21.3346 19.666 21.3346 19.666C21.268 18.7327 20.1346 17.666 19.1346 17.666Z" fill="black"/>
</svg>
