<svg width="15" height="15" viewBox="0 0 15 15" fill="none" xmlns="http://www.w3.org/2000/svg">
<path d="M13.2595 8.57836C14.2206 8.57836 14.7869 7.60851 14.7869 6.64736V2.48963H3.96028L3.66106 1.39193C3.55842 1.01355 3.21484 0.75 2.82169 0.75H0V2.48963H2.15628L3.67063 7.97905L2.84517 11.8628C2.82952 11.9619 2.82169 12.0402 2.82169 12.1437C2.82169 13.2241 3.69759 14.0886 4.77878 14.0886C5.85996 14.0886 6.73587 13.3015 6.73587 12.2212C6.73587 12.1463 6.72195 12.0933 6.71412 12.0933H11.1076C11.0989 12.0933 11.0858 12.1403 11.0858 12.2151C11.0858 13.2954 11.9617 14.1243 13.0429 14.1243C14.1241 14.1243 15 13.3197 15 12.2394C15 11.1591 14.1241 10.3545 13.0429 10.3545H4.93186L5.34764 8.57836H13.2595Z" fill="#262626"/>
</svg>
