<svg width="44" height="44" viewBox="0 0 44 44" fill="none" xmlns="http://www.w3.org/2000/svg">
<path d="M21.7318 43.4637C33.734 43.4637 43.4637 33.734 43.4637 21.7318C43.4637 9.72967 33.734 0 21.7318 0C9.72967 0 0 9.72967 0 21.7318C0 33.734 9.72967 43.4637 21.7318 43.4637Z" fill="black"/>
<path d="M21.7295 15.2367C23.8229 15.2367 24.1116 15.2367 24.9057 15.3089C25.6997 15.3089 26.1328 15.4532 26.3494 15.5976C26.7103 15.742 26.9991 15.8864 27.2878 16.1751C27.5766 16.4638 27.7209 16.7526 27.8653 17.1135C28.0097 17.4023 28.0819 17.8354 28.154 18.5572C28.2262 19.4235 28.2262 19.64 28.2262 21.7334C28.2262 23.8268 28.2262 24.1155 28.154 24.9096C28.154 25.7036 28.0097 26.1367 27.8653 26.3533C27.7209 26.7142 27.5766 27.003 27.2878 27.2917C26.9991 27.5805 26.7103 27.7248 26.3494 27.8692C26.0606 28.0136 25.6275 28.0858 24.9057 28.1579C24.0394 28.2301 23.8229 28.2301 21.7295 28.2301C19.6361 28.2301 19.3474 28.2301 18.5533 28.1579C17.7593 28.1579 17.3262 28.0136 17.1096 27.8692C16.7487 27.7248 16.4599 27.5805 16.1712 27.2917C15.8825 27.003 15.7381 26.7142 15.5937 26.3533C15.4493 26.0646 15.3772 25.6314 15.305 24.9096C15.2328 24.0434 15.2328 23.8268 15.2328 21.7334C15.2328 19.64 15.2328 19.3513 15.305 18.5572C15.305 17.7632 15.4493 17.3301 15.5937 17.1135C15.7381 16.7526 15.8825 16.4638 16.1712 16.1751C16.4599 15.8864 16.7487 15.742 17.1096 15.5976C17.3984 15.4532 17.8315 15.3811 18.5533 15.3089C19.3474 15.2367 19.6361 15.2367 21.7295 15.2367ZM21.7295 13.793C19.5639 13.793 19.2752 13.793 18.4811 13.8652C17.6149 13.9373 17.0374 14.0095 16.5321 14.2261C16.0268 14.4426 15.5937 14.7314 15.1606 15.1645C14.7275 15.5976 14.4387 16.0307 14.2222 16.536C14.0056 17.0413 13.8612 17.6188 13.8612 18.485C13.7891 19.3513 13.7891 19.5678 13.7891 21.7334C13.7891 23.899 13.7891 24.1877 13.8612 24.9818C13.9334 25.848 14.0056 26.4255 14.2222 26.9308C14.4387 27.4361 14.7275 27.8692 15.1606 28.3023C15.5937 28.7354 16.0268 29.0242 16.5321 29.2407C17.0374 29.4573 17.6149 29.6017 18.4811 29.6017C19.3474 29.6738 19.5639 29.6738 21.7295 29.6738C23.8951 29.6738 24.1838 29.6738 24.9779 29.6017C25.8441 29.5295 26.4216 29.4573 26.9269 29.2407C27.4322 29.0242 27.8653 28.7354 28.2984 28.3023C28.7315 27.8692 29.0203 27.4361 29.2368 26.9308C29.4534 26.4255 29.5978 25.848 29.5978 24.9818C29.6699 24.1155 29.6699 23.899 29.6699 21.7334C29.6699 19.5678 29.6699 19.2791 29.5978 18.485C29.5256 17.6188 29.4534 17.0413 29.2368 16.536C29.0203 16.0307 28.7315 15.5976 28.2984 15.1645C27.8653 14.7314 27.4322 14.4426 26.9269 14.2261C26.4216 14.0095 25.8441 13.8652 24.9779 13.8652C24.1838 13.793 23.8951 13.793 21.7295 13.793Z" fill="white"/>
<path d="M21.7299 17.6912C19.4921 17.6912 17.6875 19.4958 17.6875 21.7336C17.6875 23.9713 19.4921 25.776 21.7299 25.776C23.9677 25.776 25.7723 23.9713 25.7723 21.7336C25.7723 19.4958 23.9677 17.6912 21.7299 17.6912ZM21.7299 24.4044C20.2862 24.4044 19.059 23.2495 19.059 21.7336C19.059 20.2177 20.214 19.0627 21.7299 19.0627C23.2458 19.0627 24.4008 20.2177 24.4008 21.7336C24.4008 23.2495 23.1736 24.4044 21.7299 24.4044Z" fill="white"/>
<path d="M25.9892 18.413C26.5075 18.413 26.9276 17.9928 26.9276 17.4746C26.9276 16.9563 26.5075 16.5361 25.9892 16.5361C25.4709 16.5361 25.0508 16.9563 25.0508 17.4746C25.0508 17.9928 25.4709 18.413 25.9892 18.413Z" fill="white"/>
</svg>
