<svg width="26" height="14" viewBox="0 0 26 14" fill="none" xmlns="http://www.w3.org/2000/svg">
<path d="M25.0788 7.15884L24.9489 6.83406C24.4942 5.79474 23.5848 5.08021 22.4805 4.9503L18.3233 4.56055L16.1797 1.4426L14.7506 0.533203L2.79849 0.857989L1.62926 3.91098L1.43438 4.10585V4.17081L1.23951 4.23577L0.589939 6.83406L0.200195 7.28876V10.3418L1.1096 11.2512H2.34378C2.73353 12.3554 3.8378 13.1999 5.07199 13.1999C6.30618 13.1999 7.41045 12.3554 7.80019 11.2512H16.9592C17.3489 12.3554 18.4532 13.1999 19.6874 13.1999C20.9216 13.1999 22.0258 12.3554 22.4156 11.2512H24.6241L25.5335 10.3418V7.61354L25.0788 7.15884ZM14.8156 2.74175L15.8549 4.30072L10.2686 4.17081V2.48192L14.166 2.35201L14.8156 2.74175ZM4.42242 2.48192H8.31985V4.10585H3.77284L4.42242 2.48192ZM5.07199 11.1212C4.55233 11.1212 4.09763 10.6665 4.09763 10.1469C4.09763 9.62722 4.55233 9.17252 5.07199 9.17252C5.59165 9.17252 6.04635 9.62722 6.04635 10.1469C6.04635 10.6665 5.59165 11.1212 5.07199 11.1212ZM19.6874 11.1212C19.1677 11.1212 18.713 10.6665 18.713 10.1469C18.713 9.62722 19.1677 9.17252 19.6874 9.17252C20.207 9.17252 20.6617 9.62722 20.6617 10.1469C20.6617 10.6665 20.207 11.1212 19.6874 11.1212ZM23.5848 9.17252H22.4156C22.0258 8.06825 20.9216 7.2238 19.6874 7.2238C18.4532 7.2238 17.3489 8.06825 16.9592 9.17252H7.80019C7.41045 8.06825 6.30618 7.2238 5.07199 7.2238C3.8378 7.2238 2.73353 8.00329 2.34378 9.17252H2.14891V7.93833L2.34378 7.6785L2.86344 5.8597L17.0241 6.18448L22.2857 6.7691C22.6754 6.83406 22.9352 7.02893 23.1301 7.35372L23.3899 8.06825L23.5848 8.26312V9.17252Z" fill="white"/>
</svg>
