<svg width="12" height="16" viewBox="0 0 12 16" fill="none" xmlns="http://www.w3.org/2000/svg">
<path d="M6.1263 0.0834961C3.2513 0.0834961 0.917969 2.41683 0.917969 5.29183C0.917969 6.2085 1.16797 7.12516 1.6263 7.91683L6.1263 15.9168L10.5846 8.00016L10.6263 7.91683C11.1263 7.12516 11.3763 6.2085 11.3763 5.25016C11.3346 2.41683 9.0013 0.0834961 6.1263 0.0834961ZM9.5013 7.3335L6.1263 13.3335L2.79297 7.41683L2.7513 7.37516C2.3763 6.75016 2.16797 6.04183 2.16797 5.29183C2.16797 3.12516 3.95963 1.3335 6.1263 1.3335C8.29297 1.3335 10.0846 3.0835 10.0846 5.29183C10.0846 6.00016 9.8763 6.7085 9.5013 7.3335Z" fill="black"/>
</svg>
