<svg width="16" height="16" viewBox="0 0 16 16" fill="none" xmlns="http://www.w3.org/2000/svg">
<path d="M9.25375 6.05273L9 5.70273L9 1.01623L13.7084 1.01623L14.0697 1.25948L12.2506 2.98411L11.037 4.22136L9.25375 6.05273Z" fill="#262626"/>
<path fill-rule="evenodd" clip-rule="evenodd" d="M13 8C13 10.7614 10.7614 13 8 13C5.23858 13 3 10.7614 3 8C3 5.23858 5.23858 3 8 3V1C4.13401 1 1 4.13401 1 8C1 11.866 4.13401 15 8 15C11.866 15 15 11.866 15 8C15 4.47353 12.3923 1.55612 9 1.07089V3.10002C11.2822 3.56329 13 5.58104 13 8Z" fill="#262626"/>
</svg>
