<svg width="14" height="18" viewBox="0 0 14 18" fill="none" xmlns="http://www.w3.org/2000/svg">
<path d="M7.16536 7.33333C5.3737 7.33333 3.95703 5.875 3.95703 4.125C3.95703 2.375 5.3737 0.875 7.16536 0.875C8.95703 0.875 10.3737 2.33333 10.3737 4.08333C10.3737 5.83333 8.95703 7.33333 7.16536 7.33333ZM7.16536 2.125C6.08203 2.125 5.20703 3 5.20703 4.08333C5.20703 5.16667 6.08203 6.04167 7.16536 6.04167C8.2487 6.04167 9.1237 5.16667 9.1237 4.08333C9.1237 3 8.2487 2.125 7.16536 2.125Z" fill="black"/>
<path d="M9 7.875H5.25C2.83333 7.875 0.875 9.66667 0.875 11.8333V17.125H13.375V11.8333C13.375 9.625 11.4167 7.875 9 7.875ZM2.125 15.875V11.8333C2.125 10.3333 3.54167 9.125 5.25 9.125H9C10.7083 9.125 12.125 10.3333 12.125 11.8333V15.875H2.125Z" fill="black"/>
</svg>
