<svg width="24" height="24" viewBox="0 0 24 24" fill="none" xmlns="http://www.w3.org/2000/svg">
<path d="M22.1697 3.05352C21.9762 2.84502 21.7722 2.65001 21.5577 2.47301C20.4132 1.5235 18.9387 1 17.4102 1C15.5997 1 13.8761 1.73351 12.6851 3.01302L11.9996 3.72252L11.3126 3.01302C10.1216 1.73351 8.39809 1 6.58907 1C5.06206 1 3.58755 1.5235 2.44304 2.47301C2.22554 2.65001 2.02304 2.84502 1.82953 3.05352C-0.592987 5.58554 -0.610986 9.59957 1.78303 12.8141C3.45705 15.0626 9.6521 21.3162 11.9996 23.6112C14.3471 21.3162 20.5437 15.0611 22.2177 12.8141C24.6117 9.59807 24.5922 5.58554 22.1697 3.05352Z" fill="#0085AC"/>
</svg>
