<svg width="24" height="24" viewBox="0 0 24 24" fill="none" xmlns="http://www.w3.org/2000/svg">
<path d="M11.9964 23.9065L10.7607 22.7129C7.47443 19.5421 3.16169 15.1993 1.82558 13.3991C-0.65919 10.0476 -0.602207 5.84508 1.96429 3.17811C3.23517 1.80002 5.09913 1 7.0598 1C8.67408 1 10.2381 1.54659 11.4648 2.53705C11.6492 2.68626 11.8262 2.84671 11.9941 3.01541C13.2695 1.73479 15.0592 1.0015 16.9329 1.0015C18.5704 1.0015 20.151 1.56159 21.3851 2.57904C21.6123 2.76498 21.8282 2.96817 22.0419 3.19611C24.6077 5.86383 24.6587 10.0663 22.1551 13.4044C20.5783 15.5105 15.3891 20.612 13.2305 22.7076L11.9964 23.9065ZM7.05905 3.24934C5.72444 3.24934 4.46331 3.78544 3.60106 4.72116C1.79484 6.59786 1.81434 9.60823 3.6318 12.0585C4.76922 13.5903 8.59085 17.4802 11.9919 20.7747C13.9495 18.868 18.9213 13.9712 20.3542 12.0563C22.1821 9.61798 22.2054 6.61136 20.4089 4.74441C20.2529 4.5772 20.109 4.44224 19.956 4.31778C19.1208 3.62873 18.0478 3.25084 16.9314 3.25084C15.6103 3.25084 14.3582 3.77794 13.4959 4.69642L11.9881 6.2897L10.4878 4.69492C10.3491 4.54796 10.2021 4.41 10.0477 4.28554C9.22292 3.61748 8.16048 3.24934 7.05905 3.24934Z" fill="#262626"/>
</svg>
