<svg width="25" height="20" viewBox="0 0 25 20" fill="none" xmlns="http://www.w3.org/2000/svg">
<path d="M24.7656 2.29505C23.8824 2.6867 22.9335 2.95165 21.9376 3.07043C22.9542 2.46134 23.735 1.49593 24.1029 0.345963C23.1515 0.909981 22.0978 1.3199 20.9759 1.541C20.0781 0.584118 18.7984 0 17.3822 0C14.6626 0 12.4583 2.1909 12.4583 4.90988C12.4583 5.29604 12.5016 5.67185 12.5856 6.03183C8.49316 5.82656 4.86481 3.8659 2.43636 0.886836C2.01243 1.61409 1.77002 2.46012 1.77002 3.36218C1.77002 5.07068 2.63919 6.57757 3.96031 7.46075C3.15326 7.43517 2.39372 7.21346 1.72982 6.84496C1.72921 6.86567 1.72921 6.88638 1.72921 6.90709C1.72921 9.2929 3.42674 11.2828 5.67916 11.7354C5.2662 11.848 4.8307 11.9077 4.3818 11.9077C4.06446 11.9077 3.75626 11.8767 3.45537 11.8194C4.08212 13.7758 5.90026 15.1992 8.05522 15.2388C6.36987 16.5593 4.24658 17.3469 1.93995 17.3469C1.54222 17.3469 1.15057 17.3238 0.765625 17.2781C2.94434 18.6759 5.53237 19.4909 8.31348 19.4909C17.3707 19.4909 22.3232 11.9881 22.3232 5.48121C22.3232 5.26803 22.3183 5.05545 22.3092 4.8441C23.2709 4.14973 24.106 3.28239 24.7656 2.29505Z" fill="#919191"/>
</svg>
