<svg width="24" height="17" viewBox="0 0 24 17" fill="none" xmlns="http://www.w3.org/2000/svg">
<path d="M23.7604 3.64177C23.7604 3.64177 23.5262 1.98831 22.8062 1.25956C21.8936 0.303984 20.8709 0.298616 20.4018 0.242919C17.0433 -3.1998e-07 12.0057 0 12.0057 0H11.995C11.995 0 6.95742 -3.1998e-07 3.59883 0.242919C3.12976 0.298616 2.10709 0.303313 1.19446 1.25956C0.475102 1.98764 0.240906 3.64177 0.240906 3.64177C0.240906 3.64177 0 5.58378 0 7.52579V9.34634C0 11.2884 0.240235 13.3505 0.240235 13.3505C0.240235 13.3505 0.47443 15.0039 1.19379 15.7327C2.10642 16.6883 3.30625 16.6581 3.8404 16.7587C5.76027 16.9426 12.0003 16.9996 12.0003 16.9996C12.0003 16.9996 17.0433 16.9923 20.4018 16.7493C20.8709 16.6936 21.8943 16.6889 22.8062 15.7327C23.5256 15.0046 23.7604 13.3505 23.7604 13.3505C23.7604 13.3505 24 11.2884 24 9.34634V7.52579C24 5.58378 23.7604 3.64177 23.7604 3.64177ZM9.24971 11.744V4.99997L16.0058 8.38339L9.24971 11.744Z" fill="#919191"/>
</svg>
