<svg width="24" height="24" viewBox="0 0 24 24" fill="none" xmlns="http://www.w3.org/2000/svg">
<path fill-rule="evenodd" clip-rule="evenodd" d="M12 2.16225C15.204 2.16225 15.5835 2.17425 16.8488 2.232C18.0187 2.28525 18.654 2.481 19.077 2.64525C19.5983 2.83725 20.07 3.144 20.457 3.543C20.8553 3.93 21.162 4.40175 21.3547 4.923C21.519 5.346 21.7147 5.98125 21.768 7.15125C21.8257 8.4165 21.8377 8.796 21.8377 12C21.8377 15.204 21.8257 15.5835 21.768 16.8488C21.7147 18.0187 21.519 18.654 21.3547 19.077C20.9513 20.1233 20.124 20.9505 19.077 21.3547C18.654 21.519 18.0187 21.7147 16.8488 21.768C15.5835 21.8257 15.204 21.8377 12 21.8377C8.796 21.8377 8.4165 21.8257 7.15125 21.768C5.98125 21.7147 5.346 21.519 4.923 21.3547C4.40175 21.1628 3.93 20.856 3.543 20.457C3.14475 20.07 2.838 19.5983 2.64525 19.077C2.481 18.654 2.28525 18.0187 2.232 16.8488C2.17425 15.5835 2.16225 15.204 2.16225 12C2.16225 8.796 2.17425 8.4165 2.232 7.15125C2.28525 5.98125 2.481 5.346 2.64525 4.923C2.838 4.40175 3.14475 3.93 3.543 3.543C3.93 3.14475 4.40175 2.838 4.923 2.64525C5.346 2.481 5.98125 2.28525 7.15125 2.232C8.4165 2.175 8.796 2.16225 12 2.16225ZM12 0C8.74125 0 8.3325 0.0134998 7.05225 0.0719998C5.775 0.1305 4.90275 0.33375 4.14 0.63C3.339 0.9315 2.61375 1.404 2.0145 2.01375C1.404 2.613 0.9315 3.33825 0.63 4.13925C0.33375 4.90275 0.1305 5.775 0.0727501 7.05225C0.0135001 8.3325 0 8.74125 0 12C0 15.2587 0.0135001 15.6675 0.0727501 16.9478C0.13125 18.225 0.33375 19.0972 0.63075 19.8607C0.93225 20.6617 1.40475 21.387 2.0145 21.9862C2.61375 22.5967 3.339 23.0693 4.14 23.37C4.9035 23.667 5.77575 23.8695 7.053 23.928C8.3325 23.9865 8.74125 24 12 24C15.2587 24 15.6675 23.9865 16.9478 23.928C18.225 23.8695 19.0972 23.667 19.8607 23.37C21.4725 22.7467 22.7467 21.4725 23.37 19.8607C23.667 19.0972 23.8695 18.225 23.928 16.9478C23.9865 15.6683 24 15.2595 24 12C24 8.7405 23.9865 8.3325 23.928 7.05225C23.8695 5.775 23.667 4.90275 23.37 4.13925C23.0685 3.33825 22.596 2.613 21.9862 2.01375C21.387 1.40325 20.6617 0.93075 19.8607 0.62925C19.0972 0.333 18.225 0.12975 16.9478 0.0719998C15.6675 0.0142498 15.2587 0 12 0ZM12 5.83804C8.5965 5.83804 5.838 8.59729 5.838 12C5.838 15.4028 8.59725 18.162 12 18.162C15.4027 18.162 18.162 15.4028 18.162 12C18.162 8.59729 15.4035 5.83804 12 5.83804ZM12 16.0005C9.79125 16.0005 8.00025 14.2095 8.00025 12.0008C8.00025 9.79204 9.79125 8.00104 12 8.00104C14.2087 8.00104 15.9997 9.79204 15.9997 12.0008C15.9997 14.2095 14.2087 16.0005 12 16.0005ZM19.8458 5.59503C19.8458 6.39032 19.201 7.03503 18.4058 7.03503C17.6105 7.03503 16.9658 6.39032 16.9658 5.59503C16.9658 4.79974 17.6105 4.15503 18.4058 4.15503C19.201 4.15503 19.8458 4.79974 19.8458 5.59503Z" fill="#919191"/>
</svg>
