<svg width="21" height="21" viewBox="0 0 21 21" fill="none" xmlns="http://www.w3.org/2000/svg">
<path d="M11.0832 8.65259H9.49989V13.9304H8.44434V15.5137H9.49989H11.0832H12.1388V13.9304H11.0832V8.65259Z" fill="#3BD014"/>
<path d="M11.0833 5.48608H9.5V7.06942H11.0833V5.48608Z" fill="#3BD014"/>
<path d="M10.2917 1.79159C12.6139 1.79159 14.8306 2.68881 16.4667 4.32492C19.8444 7.7027 19.8444 13.2444 16.4667 16.6221C14.8306 18.2582 12.6139 19.1555 10.2917 19.1555C7.96944 19.1555 5.75278 18.2582 4.11667 16.6221C0.738888 13.2444 0.738888 7.7027 4.11667 4.32492C5.75278 2.68881 7.96944 1.79159 10.2917 1.79159ZM10.2917 0.208252C7.65278 0.208252 5.01389 1.21103 3.00833 3.21658C-1.00278 7.2277 -1.00278 13.7721 3.00833 17.7833C5.01389 19.7888 7.65278 20.7916 10.2917 20.7916C12.9306 20.7916 15.5694 19.7888 17.575 17.7833C21.5861 13.7721 21.5861 7.2277 17.575 3.21658C15.5694 1.21103 12.9306 0.208252 10.2917 0.208252Z" fill="#3BD014"/>
</svg>
