<svg width="14" height="18" viewBox="0 0 14 18" fill="none" xmlns="http://www.w3.org/2000/svg">
<path d="M12.3755 10.4052C13.2726 10.4052 13.8011 9.3276 13.8011 8.25965V3.63996H3.69626L3.41699 2.42028C3.32119 1.99987 3.00052 1.70703 2.63357 1.70703H0V3.63996H2.01253L3.42592 9.73931L2.65549 14.0546C2.64088 14.1647 2.63357 14.2517 2.63357 14.3667C2.63357 15.5671 3.45109 16.5278 4.46019 16.5278C5.4693 16.5278 6.28681 15.6531 6.28681 14.4528C6.28681 14.3696 6.27382 14.3107 6.26651 14.3107H10.3671C10.3589 14.3107 10.3468 14.3629 10.3468 14.446C10.3468 15.6463 11.1643 16.5674 12.1734 16.5674C13.1825 16.5674 14 15.6734 14 14.4731C14 13.2727 13.1825 12.3787 12.1734 12.3787H4.60307L4.99113 10.4052H12.3755Z" fill="black"/>
</svg>
