<svg viewBox="0 0 32 26" fill="none" xmlns="http://www.w3.org/2000/svg">
<path d="M9.72865 19.8185C7.36097 19.775 5.32238 18.3749 4.36203 16.3618C4.51367 16.3718 4.66682 16.377 4.82156 16.377C5.46452 16.377 6.08945 16.2915 6.683 16.1295L6.64987 15.1569C4.10848 14.6463 2.14074 12.5461 1.82817 9.93855C2.57816 10.2414 3.39258 10.4204 4.24373 10.4474L5.98958 10.5028L4.53745 9.532C2.90915 8.44346 1.83919 6.58732 1.83919 4.48291C1.83919 3.62876 2.01536 2.81629 2.3335 2.07977C5.64561 5.82973 10.4023 8.27434 15.735 8.54181L16.3978 8.57505L16.2469 7.92874C16.1438 7.4869 16.0903 7.02401 16.0903 6.54651C16.0903 3.19916 18.8037 0.5 22.1555 0.5C23.9036 0.5 25.4785 1.2203 26.5824 2.39678L26.7719 2.59879L27.0437 2.54523C28.1004 2.33699 29.1133 2.00773 30.0676 1.57266C29.5525 2.43028 28.8308 3.15063 27.9723 3.665L28.2885 4.59038C29.0655 4.49771 29.8221 4.34068 30.5535 4.12411C29.921 4.84395 29.2086 5.49273 28.432 6.05341L28.2135 6.21116L28.2252 6.48039C28.2371 6.75542 28.2434 7.03164 28.2434 7.30828C28.2434 15.7692 21.8065 25.4879 10.0638 25.4879C7.18399 25.4879 4.4643 24.8147 2.0463 23.6209C5.05172 23.5175 7.8134 22.4471 10.0278 20.712L11.1352 19.8444L9.72865 19.8185Z" fill="#262626" stroke="#262626"/>
</svg>
