<svg width="22" height="26" viewBox="0 0 22 26" fill="none" xmlns="http://www.w3.org/2000/svg">
<path d="M17.9916 15.1993H15.9707L14.9583 16.5602V19.9925H12.2801V24.688C12.2801 25.397 11.7025 25.9718 10.9901 25.9718C10.2776 25.9718 9.70007 25.397 9.70007 24.688V19.9925H7.02184V16.5639L6.01326 15.1993H3.99231C3.99231 15.1993 3.45591 13.4248 3.99231 12.5376C4.52871 11.6504 4.7478 8.74813 5.35975 9.45866L7.86422 12.3572V18.9887H9.70762V14.2105C9.70761 13.5034 10.2814 12.929 10.992 12.9248C11.7008 12.9309 12.2739 13.5013 12.2801 14.2068V18.9887H14.1235V12.3572L16.6204 9.45866C17.2286 8.74813 17.4514 11.6466 17.9916 12.5376C18.5318 13.4286 17.9916 15.1993 17.9916 15.1993Z" fill="black"/>
<path d="M21.636 0.755862C20.5027 0.124283 19.9323 0.440073 18.2362 1.26714C17.3188 1.73294 16.4832 2.34361 15.762 3.07541C15.4202 2.29089 15.1201 1.48904 14.863 0.673156C14.6665 -0.123837 13.7297 0.0415767 10.9986 0.0415767C8.2675 0.0415767 7.32313 -0.120077 7.1267 0.673156C6.86952 1.48903 6.56942 2.29089 6.22766 3.07541C5.50647 2.34361 4.67089 1.73294 3.75342 1.26714C2.04978 0.440073 1.48694 0.139321 0.353696 0.755862C-0.779546 1.3724 1.42272 2.92504 2.62018 2.45135C3.62121 2.05285 5.0151 2.41 6.13701 3.35737C6.08034 3.48894 6.02746 3.6318 5.9708 3.77842C5.47474 3.64754 4.94598 3.7396 4.52402 4.0303C4.35404 4.24458 4.63735 4.10173 4.63735 4.10173C5.02662 3.99131 5.44301 4.02607 5.80837 4.19947C5.73785 4.38493 5.66608 4.57917 5.59305 4.78218C4.87911 6.75586 5.59305 8.06037 5.59305 8.06037C8.19573 12.395 10.9911 12.2032 10.9911 12.2032C10.9911 12.2032 13.7864 12.3987 16.4004 8.06789C16.4004 8.06789 17.1143 6.76714 16.4004 4.7897C16.3437 4.62428 16.2833 4.46639 16.2229 4.31225C16.6497 4.11676 17.2277 3.93631 17.6394 4.10925C17.6394 4.10925 17.9265 4.2521 17.7565 4.03782C17.2519 3.70394 16.6138 3.64058 16.0529 3.86864C15.9849 3.69195 15.9244 3.52654 15.8564 3.36488C16.9897 2.41752 18.3722 2.06413 19.3733 2.45887C20.5669 2.92504 22.7881 1.38368 21.636 0.755862ZM9.42341 11.2822C8.74724 10.9288 6.60541 9.34985 6.45054 8.12428C6.29566 6.89872 6.88495 6.70323 7.58378 6.82353C8.28261 6.94383 9.47251 7.7709 9.47251 7.7709C10.0358 8.28888 10.3539 9.01894 10.3489 9.78218C10.3753 11.0942 10.0958 11.6468 9.42718 11.2935L9.42341 11.2822ZM15.5656 8.12428C15.4069 9.34985 13.2689 10.9288 12.5927 11.2822C11.9165 11.6356 11.6408 11.0829 11.6408 9.77842C11.6351 9.02139 11.9473 8.29638 12.502 7.77842C12.502 7.77842 13.6919 6.95135 14.3908 6.83105C15.0896 6.71075 15.7318 6.91376 15.5694 8.13556L15.5656 8.12428Z" fill="black"/>
</svg>
