<svg width="23" height="17" viewBox="0 0 23 17" fill="none" xmlns="http://www.w3.org/2000/svg">
<g clip-path="url(#clip0)">
<path fill-rule="evenodd" clip-rule="evenodd" d="M11.4877 0.583987C8.49017 0.580914 6.05518 3.00135 6.04297 5.99614C6.04297 8.98597 11.4738 16.8758 11.4738 16.8758C11.4738 16.8758 16.9046 9.01365 16.9046 5.99614C16.9016 3.00836 14.4781 0.587042 11.4877 0.583987ZM11.4877 8.44614C10.1104 8.44614 8.99391 7.33064 8.99391 5.95461C8.99391 4.57858 10.1104 3.46309 11.4877 3.46309C12.8649 3.46309 13.9814 4.57858 13.9814 5.95461C13.9738 7.32523 12.8595 8.43232 11.4877 8.4323V8.44614Z" fill="black"/>
<path fill-rule="evenodd" clip-rule="evenodd" d="M19.2742 3.9473C18.7545 3.95154 18.2427 4.07465 17.778 4.30721C17.8625 4.58686 17.9182 4.87442 17.9442 5.1654C18.3377 4.90068 18.7999 4.75637 19.2742 4.75015C19.8991 4.74941 20.4986 4.99709 20.9404 5.43855C21.3823 5.88 21.6302 6.47895 21.6294 7.10326C21.6294 7.96145 20.4103 10.2038 19.2742 11.9756C18.5804 10.8949 17.9557 9.77152 17.4039 8.61201L16.9883 9.60862C17.6887 10.9354 18.4658 12.2202 19.3158 13.4566C19.3158 13.4566 22.4746 8.88885 22.4746 7.14478C22.4782 6.29564 22.1423 5.4802 21.5413 4.87975C20.9403 4.27931 20.1241 3.94363 19.2742 3.9473Z" fill="black"/>
<path d="M19.2739 8.32092C19.9472 8.32092 20.493 7.77557 20.493 7.10284C20.493 6.43012 19.9472 5.88477 19.2739 5.88477C18.6005 5.88477 18.0547 6.43012 18.0547 7.10284C18.0547 7.77557 18.6005 8.32092 19.2739 8.32092Z" fill="black"/>
<path fill-rule="evenodd" clip-rule="evenodd" d="M3.70172 11.7546C2.17776 9.37378 1.48505 7.6574 1.48505 7.13141C1.48505 5.90827 2.47749 4.91672 3.70172 4.91672C4.16813 4.91865 4.62271 5.06359 5.00401 5.33197C5.03924 4.99472 5.10414 4.66123 5.19797 4.33536C4.7392 4.087 4.22336 3.96293 3.70172 3.97547C2.86374 3.97474 2.05988 4.307 1.46733 4.89901C0.874795 5.49103 0.542235 6.29418 0.54297 7.13141C0.54297 8.87547 3.70172 13.471 3.70172 13.471C4.5517 12.2345 5.32885 10.9497 6.02922 9.62293C5.83526 9.20768 5.66901 8.82011 5.53047 8.43254C4.99165 9.57732 4.38084 10.6869 3.70172 11.7546Z" fill="black"/>
<path d="M3.70354 8.32092C4.37687 8.32092 4.92271 7.77557 4.92271 7.10284C4.92271 6.43012 4.37687 5.88477 3.70354 5.88477C3.03021 5.88477 2.48438 6.43012 2.48438 7.10284C2.48438 7.77557 3.03021 8.32092 3.70354 8.32092Z" fill="black"/>
</g>
<defs>
<clipPath id="clip0">
<rect width="22.1667" height="16.3333" fill="white" transform="translate(0.5 0.583984)"/>
</clipPath>
</defs>
</svg>
