<svg width="17" height="17" viewBox="0 0 17 17" fill="none" xmlns="http://www.w3.org/2000/svg">
<path d="M14.2188 3.42188H10.6641V2.91406C10.6641 2.07617 9.97852 1.39062 9.14062 1.39062H7.10938C6.27148 1.39062 5.58594 2.07617 5.58594 2.91406V3.42188H2.03125V4.4375H3.05195C3.12305 11.2371 4.53984 15.1168 4.60078 15.2793L4.72773 15.6094H11.5273L11.6492 15.2793C11.7102 15.1117 13.127 11.2371 13.198 4.4375H14.2188V3.42188ZM6.60156 2.91406C6.60156 2.63477 6.83008 2.40625 7.10938 2.40625H9.14062C9.41992 2.40625 9.64844 2.63477 9.64844 2.91406V3.42188H6.60156V2.91406ZM10.8063 14.5938H5.44375C5.10859 13.5324 4.12344 9.94727 4.0625 4.4375H12.1875C12.1266 9.94727 11.1414 13.5324 10.8063 14.5938Z" fill="black"/>
<path d="M9.14158 5.42487L8.63281 13.5488L9.64641 13.6123L10.1552 5.48835L9.14158 5.42487Z" fill="black"/>
<path d="M7.10745 5.41905L6.09375 5.48242L6.6017 13.6072L7.6154 13.5438L7.10745 5.41905Z" fill="black"/>
</svg>
