<svg width="20" height="19" viewBox="0 0 20 19" fill="none" xmlns="http://www.w3.org/2000/svg">
<path d="M10.0026 9.41732C7.91427 9.41732 6.21094 7.71398 6.21094 5.62565C6.21094 3.53732 7.91427 1.83398 10.0026 1.83398C12.0909 1.83398 13.7943 3.53732 13.7943 5.62565C13.7943 7.71398 12.0909 9.41732 10.0026 9.41732ZM10.0026 3.00065C8.55594 3.00065 7.3776 4.17898 7.3776 5.62565C7.3776 7.07232 8.55594 8.25065 10.0026 8.25065C11.4493 8.25065 12.6276 7.07232 12.6276 5.62565C12.6276 4.17898 11.4493 3.00065 10.0026 3.00065Z" fill="white"/>
<path d="M17 16.4168H3V15.8335C3 15.6993 3.04083 12.4443 6.10917 9.51013L6.4825 9.1543L6.87917 9.47513C7.77167 10.1985 8.85083 10.5835 10 10.5835C11.1492 10.5835 12.2283 10.1985 13.1208 9.47513L13.5175 9.1543L13.8908 9.51013C16.9592 12.4443 17 15.6935 17 15.8335V16.4168ZM4.23083 15.2501H15.7692C15.6175 14.3343 15.1158 12.4793 13.43 10.7001C12.4208 11.3768 11.2192 11.7501 10 11.7501C8.78083 11.7501 7.57917 11.3768 6.57 10.7001C4.88417 12.4793 4.37667 14.3343 4.23083 15.2501Z" fill="white"/>
</svg>
