<svg width="30" height="22" viewBox="0 0 30 22" fill="none" xmlns="http://www.w3.org/2000/svg">
<path d="M11.3188 21.4508C10.5006 20.2133 9.95513 18.8383 9.6824 17.4633C9.40967 16.3633 9.27331 15.4008 9.40967 14.3008C9.54604 13.2008 9.81877 12.2383 10.2279 11.2758C10.6369 10.3133 11.1824 9.48828 11.8642 8.66328C11.1824 8.25078 10.5006 7.83828 9.81877 7.42578C10.5006 6.46328 11.1824 5.50078 12.0006 4.40078H11.8642C11.046 4.81328 10.0915 5.22578 9.27331 5.77578C9.27331 5.77578 9.13695 5.77578 9.13695 5.91328C8.86422 6.05078 8.59149 6.32578 8.31877 6.60078L8.1824 6.73828C7.63695 6.73828 6.95513 6.73828 6.40967 6.73828C6.27331 6.73828 6.00058 6.73828 5.86422 6.87578C5.31877 7.01328 4.90968 7.15078 4.36422 7.42578H4.22786C4.22786 7.15078 4.22786 6.87578 4.36422 6.60078C4.36422 6.46328 4.36422 6.32578 4.36422 6.18828C4.36422 6.05078 4.36422 6.05078 4.50058 6.05078C5.45513 5.36328 6.40968 4.67578 7.50058 4.12578C7.63695 3.98828 7.63695 3.98828 7.63695 3.85078C7.63695 3.57578 7.50058 3.43828 7.22786 3.30078C6.95513 2.88828 6.54604 2.75078 6.27331 2.75078C5.72786 2.61328 5.31877 2.61328 4.77331 2.75078C4.22786 3.02578 3.6824 3.16328 3.00058 3.43828C2.59149 3.57578 2.04604 3.71328 1.63695 3.71328C1.36422 3.71328 1.09149 3.57578 0.95513 3.43828C0.682402 2.88828 0.546039 2.33828 0.682402 1.78828C0.818766 1.37578 1.09149 1.10078 1.50058 0.825781C1.77331 0.688281 2.04604 0.688281 2.31877 0.550781C2.72786 0.550781 3.13695 0.550781 3.40968 0.550781C3.6824 0.825781 3.95513 0.963281 4.09149 1.23828C4.22786 1.51328 4.36422 1.65078 4.63695 1.51328C5.04604 1.51328 5.45513 1.51328 5.86422 1.51328C6.54604 1.51328 6.95513 1.92578 7.50058 2.33828C7.90968 2.75078 8.31877 3.02578 8.45513 3.57578C8.72786 3.43828 9.13695 3.30078 9.40967 3.30078C11.1824 2.75078 13.0915 2.20078 14.8642 1.51328H15.0006C17.1824 2.20078 19.2279 2.88828 21.4097 3.57578C21.4097 3.57578 21.4097 3.57578 21.546 3.57578C21.6824 3.30078 21.8188 3.02578 21.9551 2.75078C22.5006 2.20078 23.1824 1.78828 23.8642 1.51328C24.2733 1.37578 24.6824 1.51328 25.0915 1.51328C25.0915 1.51328 25.0915 1.51328 25.2279 1.51328C25.5006 1.51328 25.6369 1.51328 25.7733 1.23828C25.9097 0.825781 26.1824 0.688281 26.5915 0.688281C27.1369 0.550781 27.6824 0.688281 28.2279 0.825781C28.7733 0.963281 29.1824 1.37578 29.1824 1.92578C29.3188 2.47578 29.046 3.02578 28.6369 3.43828C28.3642 3.71328 28.0915 3.71328 27.8188 3.71328C27.2733 3.71328 26.7279 3.43828 26.1824 3.30078C25.9097 3.16328 25.5006 3.02578 25.2279 2.88828C24.546 2.61328 23.8642 2.61328 23.1824 2.88828C22.9097 3.02578 22.6369 3.02578 22.5006 3.30078C22.3642 3.43828 22.2279 3.71328 22.2279 3.85078C22.2279 3.98828 22.2279 3.98828 22.3642 4.12578C23.4551 4.81328 24.4097 5.50078 25.5006 6.18828C25.6369 6.18828 25.6369 6.32578 25.6369 6.32578C25.6369 6.73828 25.7733 7.15078 25.7733 7.56328C25.6369 7.56328 25.5006 7.42578 25.3642 7.42578C24.8188 7.28828 24.4097 7.01328 23.8642 6.87578C23.7279 6.87578 23.7279 6.87578 23.5915 6.87578C22.9097 6.87578 22.3642 6.87578 21.6824 6.87578C21.546 6.87578 21.546 6.87578 21.4097 6.73828C21.1369 6.46328 21.0006 6.18828 20.7279 5.91328L20.5915 5.77578C19.7733 5.36328 18.8188 4.95078 18.0006 4.40078C18.0006 4.40078 18.0006 4.40078 17.8642 4.40078C18.546 5.36328 19.2279 6.32578 19.9097 7.28828C19.2279 7.70078 18.546 8.11328 18.0006 8.52578C18.2733 8.80078 18.4097 9.07578 18.6824 9.35078C19.5006 10.4508 20.1824 11.8258 20.4551 13.2008C20.5915 14.0258 20.7279 14.9883 20.5915 15.9508C20.3188 17.8758 19.7733 19.5258 18.8188 21.1758C18.8188 21.3133 18.6824 21.3133 18.6824 21.4508C16.2279 21.4508 13.7733 21.4508 11.3188 21.4508Z" fill="#999999"/>
</svg>
