<svg viewBox="0 0 32 32" fill="none" xmlns="http://www.w3.org/2000/svg">
<path fill-rule="evenodd" clip-rule="evenodd" d="M3.83792 0C5.95408 0 7.67211 1.71869 7.67211 3.83605C7.67211 5.95408 5.95408 7.67277 3.83792 7.67277C1.71332 7.67277 0 5.95408 0 3.83605C0 1.71869 1.71332 0 3.83792 0ZM0.525151 31.8659H7.14707V10.5808H0.525151V31.8659Z" fill="#262626"/>
<path fill-rule="evenodd" clip-rule="evenodd" d="M11.2971 10.5805H17.6384V13.4903H17.729C18.6111 11.817 20.7696 10.0522 23.9881 10.0522C30.6862 10.0522 31.924 14.4595 31.924 20.1921V31.8655H25.3093V21.5146C25.3093 19.0463 25.2669 15.8709 21.8719 15.8709C18.4297 15.8709 17.9045 18.5612 17.9045 21.3379V31.8655H11.2971V10.5805Z" fill="#262626"/>
</svg>
