<svg width="20" height="20" viewBox="0 0 20 20" fill="none" xmlns="http://www.w3.org/2000/svg">
<path d="M17.1562 15.8594H3.09375V17.0312H17.1562V15.8594Z" fill="black"/>
<path d="M14.9355 2.84473C14.2207 2.12988 13.0605 2.12988 12.3516 2.84473L3.09375 12.1025V14.6865H5.67773L14.9355 5.43457C15.2812 5.08887 15.4688 4.62598 15.4688 4.13965C15.4688 3.65332 15.2812 3.19043 14.9355 2.84473ZM5.19727 13.5146H4.26562V12.583L11.5898 5.25879L12.5215 6.19043L5.19727 13.5146ZM14.1035 4.60254L13.3477 5.36426L12.416 4.43262L13.1719 3.67676C13.4297 3.41895 13.8457 3.41895 14.1035 3.67676C14.2266 3.7998 14.2969 3.96387 14.2969 4.13965C14.2969 4.31543 14.2266 4.47949 14.1035 4.60254Z" fill="black"/>
</svg>
