<svg id="Layer_1" data-name="Layer 1" xmlns="http://www.w3.org/2000/svg" viewBox="0 0 15.02 15.38"><defs><style>.cls-1,.cls-2{fill:none;stroke:#1d1d1b;stroke-linecap:round;stroke-linejoin:round;}.cls-1{stroke-width:0.93px;}.cls-2{stroke-width:1.13px;}</style></defs><title>key features</title><line class="cls-1" x1="7.51" y1="2.31" x2="7.51" y2="11.57"/><path class="cls-2" d="M.57,13H5.66a1.85,1.85,0,0,1,1.85,1.85"/><path class="cls-2" d="M14.45,13H9.36a1.85,1.85,0,0,0-1.85,1.85"/><path class="cls-1" d="M7.51,2.31A1.85,1.85,0,0,0,5.66.46H2a1,1,0,0,0-1,1V10.1a1,1,0,0,0,1,1h4.1"/><path class="cls-1" d="M8.89,11.11H13a1,1,0,0,0,1-1V1.47a1,1,0,0,0-1-1H9.36A1.85,1.85,0,0,0,7.51,2.31"/></svg>