<svg id="Layer_1" data-name="Layer 1" xmlns="http://www.w3.org/2000/svg" viewBox="0 0 17.55 17.75"><defs><style>.cls-1{fill:none;stroke-linecap:round;stroke-linejoin:round;}.cls-1,.cls-2{stroke:#1d1d1b;}.cls-2,.cls-3{fill:#1d1d1b;}.cls-2{stroke-miterlimit:10;}</style></defs><title>add</title><path class="cls-1" d="M7.71,4.58H2.65a1.29,1.29,0,0,0-1.28,1.1l-.85,5.5a1.72,1.72,0,0,0,1.7,2H12a1,1,0,0,0,1-.94l0-2.93"/><path class="cls-2" d="M13,7.83a.5.5,0,0,1-.5-.5V1a.5.5,0,0,1,1,0V7.33A.5.5,0,0,1,13,7.83Z"/><path class="cls-2" d="M16.55,4.67H10a.5.5,0,0,1,0-1h6.58a.5.5,0,0,1,0,1Z"/><path class="cls-3" d="M1.13,13.17H3.71a0,0,0,0,1,0,0v3.29a1.29,1.29,0,0,1-1.29,1.29h0a1.29,1.29,0,0,1-1.29-1.29V13.17a0,0,0,0,1,0,0Z"/><path class="cls-3" d="M10.42,13.13H13a0,0,0,0,1,0,0v3.33a1.29,1.29,0,0,1-1.29,1.29h0a1.29,1.29,0,0,1-1.29-1.29V13.13a0,0,0,0,1,0,0Z"/></svg>