<?xml version="1.0" encoding="UTF-8"?>
<svg width="512px" height="434px" viewBox="0 0 512 434" version="1.1" xmlns="http://www.w3.org/2000/svg" xmlns:xlink="http://www.w3.org/1999/xlink">
    <!-- Generator: Sketch 46 (44423) - http://www.bohemiancoding.com/sketch -->
    <title>cart</title>
    <desc>Created with Sketch.</desc>
    <defs></defs>
    <g id="Page-1" stroke="none" stroke-width="1" fill="none" fill-rule="evenodd">
        <g id="cart" fill-rule="nonzero" fill="#fff">
            <path d="M214.685,343.828 C189.856,343.828 169.656,364.028 169.656,388.857 C169.656,413.686 189.856,433.886 214.685,433.886 C239.514,433.886 259.714,413.686 259.714,388.857 C259.713,364.028 239.513,343.828 214.685,343.828 Z M214.685,408.742 C203.719,408.742 194.798,399.82 194.798,388.855 C194.798,377.889 203.72,368.968 214.685,368.968 C225.65,368.968 234.572,377.89 234.572,388.855 C234.572,399.822 225.65,408.742 214.685,408.742 Z" id="Shape"></path>
            <path d="M372.63,343.828 C347.801,343.828 327.601,364.028 327.601,388.857 C327.601,413.686 347.801,433.886 372.63,433.886 C397.459,433.886 417.659,413.686 417.659,388.857 C417.658,364.028 397.458,343.828 372.63,343.828 Z M372.63,408.742 C361.664,408.742 352.743,399.82 352.743,388.855 C352.743,377.889 361.665,368.968 372.63,368.968 C383.596,368.968 392.517,377.89 392.517,388.855 C392.517,399.822 383.595,408.742 372.63,408.742 Z" id="Shape"></path>
            <path d="M506.341,90.744 C501.547,84.86 494.443,81.486 486.852,81.486 L95.278,81.486 L87.37,43.097 C85.719,35.089 80.257,28.365 72.756,25.108 L17.579,1.158 C11.209,-1.609 3.806,1.314 1.043,7.682 C-1.723,14.052 1.2,21.456 7.567,24.219 L62.745,48.17 L123.571,268.688536 C125.967,280.316536 136.323,288.756536 148.196,288.756536 L449.362,288.756536 C456.305,288.756536 461.933,283.128536 461.933,276.185536 C461.933,271.556869 478.447667,216.727691 511.477,111.698 C513.008,104.266 511.136,96.627 506.341,90.744 Z M440.519608,269.061496 L146.159807,269.061496 L100.458,106.627 L486.851,106.628006 L440.519608,269.061496 Z" id="Shape"></path>
        </g>
    </g>
</svg>