<?xml version="1.0" encoding="UTF-8"?>
<svg width="38px" height="38px" viewBox="0 0 38 38" version="1.1" xmlns="http://www.w3.org/2000/svg" xmlns:xlink="http://www.w3.org/1999/xlink">
    <!-- Generator: Sketch 46 (44423) - http://www.bohemiancoding.com/sketch -->
    <title>checked</title>
    <desc>Created with Sketch.</desc>
    <defs></defs>
    <g id="Page-1" stroke="none" stroke-width="1" fill="none" fill-rule="evenodd">
        <g id="checked" fill="#005A2B">
            <g id="Rectangle">
                <path d="M0,0 L38,0 L38,38 L0,38 L0,0 Z M8.3,20 L8.5,20.3 L16.3,28.7 C16.5,28.9 16.7,29 17,29 C17.3,29 17.5,28.9 17.7,28.7 L33.7,12.1 C34.1,11.7 34.1,11.1 33.7,10.7 L32.3,9.3 C31.9,8.9 31.3,8.9 30.9,9.3 L30.8,9.3 L17.4,23.2 C17.2,23.4 16.9,23.4 16.7,23.2 L11.2,17.3 L11.1,17.2 C10.7,16.8 10.1,16.8 9.7,17.2 L8.3,18.6 C8.1,18.8 8,19.1 8,19.3 C8,19.5 8.1,19.8 8.3,20 Z" id="Combined-Shape"></path>
            </g>
        </g>
    </g>
</svg>