<?xml version="1.0" encoding="UTF-8"?>
<svg width="179px" height="37px" viewBox="0 0 179 37" version="1.1" xmlns="http://www.w3.org/2000/svg" xmlns:xlink="http://www.w3.org/1999/xlink">
    <!-- Generator: Sketch 46 (44423) - http://www.bohemiancoding.com/sketch -->
    <title>rockar-logo</title>
    <desc>Created with Sketch.</desc>
    <defs></defs>
    <g id="Page-1" stroke="none" stroke-width="1" fill="none" fill-rule="evenodd">
        <g id="rockar-logo" transform="translate(-4.000000, -2.000000)">
            <g id="Rockar" fill="#000000">
                <path d="M4.032,38 L4.032,4.4 L19.392,4.4 C23.664,4.4 26.976,5.6 29.184,7.808 C31.056,9.68 32.064,12.32 32.064,15.488 L32.064,15.584 C32.064,21.008 29.136,24.416 24.864,26 L33.072,38 L24.432,38 L17.232,27.248 L11.424,27.248 L11.424,38 L4.032,38 Z M11.424,20.72 L18.912,20.72 C22.512,20.72 24.576,18.8 24.576,15.968 L24.576,15.872 C24.576,12.704 22.368,11.072 18.768,11.072 L11.424,11.072 L11.424,20.72 Z M50.112,38.576 C42.144,38.576 36.24,32.672 36.24,25.28 L36.24,25.184 C36.24,17.792 42.192,11.792 50.208,11.792 C58.176,11.792 64.08,17.696 64.08,25.088 L64.08,25.184 C64.08,32.576 58.128,38.576 50.112,38.576 Z M50.208,32.288 C54.384,32.288 56.88,29.072 56.88,25.28 L56.88,25.184 C56.88,21.392 54.144,18.08 50.112,18.08 C45.936,18.08 43.44,21.296 43.44,25.088 L43.44,25.184 C43.44,28.976 46.176,32.288 50.208,32.288 Z M81.504,38.576 C86.64,38.576 89.52,36.608 92.016,33.872 L87.744,29.552 C85.968,31.232 84.288,32.288 81.84,32.288 C77.856,32.288 75.312,29.12 75.312,25.184 L75.312,25.088 C75.312,21.296 77.904,18.08 81.552,18.08 C84.144,18.08 85.776,19.184 87.408,20.912 L91.872,16.112 C89.472,13.424 86.448,11.792 81.6,11.792 C73.728,11.792 68.112,17.84 68.112,25.184 L68.112,25.28 C68.112,32.624 73.776,38.576 81.504,38.576 Z M96.768,38 L104.064,38 L104.064,30.176 L106.608,27.488 L113.328,38 L121.68,38 L111.552,22.4 L121.344,12.272 L112.608,12.272 L104.064,21.632 L104.064,2.96 L96.768,2.96 L96.768,38 Z M132,38.48 C127.152,38.48 123.168,35.696 123.168,30.608 L123.168,30.512 C123.168,24.896 127.44,22.304 133.536,22.304 C136.128,22.304 138,22.736 139.824,23.36 L139.824,22.928 C139.824,19.904 137.952,18.224 134.304,18.224 C131.52,18.224 129.552,18.752 127.2,19.616 L125.376,14.048 C128.208,12.8 130.992,11.984 135.36,11.984 C139.344,11.984 142.224,13.04 144.048,14.864 C145.968,16.784 146.832,19.616 146.832,23.072 L146.832,38 L139.776,38 L139.776,35.216 C138,37.184 135.552,38.48 132,38.48 Z M134.208,33.44 C137.616,33.44 139.92,31.568 139.92,28.928 L139.92,27.632 C138.672,27.056 137.04,26.672 135.264,26.672 C132.144,26.672 130.224,27.92 130.224,30.224 L130.224,30.32 C130.224,32.288 131.856,33.44 134.208,33.44 Z M153.12,38 L160.416,38 L160.416,28.496 C160.416,22.352 163.392,19.424 168.24,19.424 L168.624,19.424 L168.624,11.792 C164.304,11.6 161.904,13.904 160.416,17.456 L160.416,12.272 L153.12,12.272 L153.12,38 Z"></path>
            </g>
            <rect id="Rectangle" fill="#669B30" fill-rule="nonzero" x="174" y="30" width="9" height="9"></rect>
        </g>
    </g>
</svg>