<?xml version="1.0" encoding="utf-8"?>
<!-- Generator: Adobe Illustrator 21.1.0, SVG Export Plug-In . SVG Version: 6.00 Build 0)  -->
<svg version="1.1" id="Layer_1" xmlns="http://www.w3.org/2000/svg" xmlns:xlink="http://www.w3.org/1999/xlink" x="0px" y="0px"
	 viewBox="0 0 150.3 48.6" style="enable-background:new 0 0 150.3 48.6;" xml:space="preserve">
<style type="text/css">
	.st0{fill:#5D666D;}
</style>
<g>
	<polygon class="st0" points="52.9,47.9 60.6,0.9 72.7,0.9 65.1,47.9 	"/>
	<path class="st0" d="M109.2,2c-2.4-1-6.2-2-10.9-2c-12,0-20.5,6.4-20.5,15.6c-0.1,6.8,6.1,10.5,10.7,12.8c4.7,2.3,6.3,3.8,6.3,5.9
		c-0.1,3.2-3.8,4.6-7.3,4.6c-4.9,0-7.5-0.8-11.4-2.5l-1.6-0.8l-1.7,10.6c2.9,1.3,8.1,2.5,13.6,2.5c12.8,0,21.1-6.3,21.2-16.1
		c0.1-5.4-3.2-9.5-10.2-12.8c-4.3-2.2-6.9-3.6-6.9-5.8c0.1-2,2.2-4.1,7-4.1c4-0.1,6.9,0.9,9.1,1.8l1.1,0.5L109.2,2L109.2,2z"/>
	<path class="st0" d="M125.4,31.2c1-2.7,4.9-13.2,4.9-13.2c-0.1,0.1,1-2.8,1.6-4.5l0.9,4.1c0,0,2.3,11.3,2.8,13.6
		C133.6,31.2,127.8,31.2,125.4,31.2L125.4,31.2z M140.4,0.9H131c-2.9,0-5.1,0.9-6.4,3.9L106.5,48h12.8c0,0,2.1-5.8,2.6-7.1
		c1.4,0,13.8,0,15.6,0c0.4,1.7,1.5,7.1,1.5,7.1h11.3L140.4,0.9L140.4,0.9z"/>
	<path class="st0" d="M42.8,0.9L30.9,33l-1.3-6.5C27.4,19,20.5,10.8,12.8,6.8L23.7,48h12.9L55.7,1H42.8V0.9z"/>
	<path class="st0" d="M19.8,0.9H0.2L0,1.8c15.3,3.9,25.4,13.3,29.6,24.6L25.3,4.8C24.6,1.8,22.4,1,19.8,0.9L19.8,0.9z"/>
</g>
</svg>
